<svg width="88" height="90" viewBox="0 0 88 90" fill="none" xmlns="http://www.w3.org/2000/svg">
<path fill-rule="evenodd" clip-rule="evenodd" d="M43.9998 3.33325C66.5514 3.33325 84.8332 21.9881 84.8332 44.9999C84.8332 68.0118 66.5514 86.6666 43.9998 86.6666C21.4482 86.6666 3.1665 68.0118 3.1665 44.9999C3.1665 21.9881 21.4482 3.33325 43.9998 3.33325Z" stroke="#30D2A3" stroke-width="5" stroke-linecap="round" stroke-linejoin="round"/>
<path fill-rule="evenodd" clip-rule="evenodd" d="M56.4529 46.9451C53.4761 50.2201 45.3748 55.7618 41.2302 57.541C40.5687 57.8243 38.8823 58.4243 38.5189 58.4326C37.7471 58.4576 37.004 58.016 36.6446 57.3076C36.5058 57.0326 36.0975 55.2368 35.9668 54.4368C35.5789 52.0035 35.3788 48.2243 35.3829 44.4243C35.3788 40.4368 35.5952 36.4785 36.028 34.0701C36.1424 33.4201 36.4772 31.9243 36.5752 31.6826C36.759 31.2326 37.0938 30.8785 37.498 30.6576C37.8084 30.4868 38.1636 30.3951 38.5189 30.4076C38.8823 30.416 40.3605 30.9451 40.8668 31.1493C44.8603 32.7326 53.3087 38.4743 56.412 41.8493C56.6897 42.1535 57.4533 42.9701 57.5799 43.1368C57.8698 43.5118 58.0127 43.966 58.0127 44.4243C58.0127 44.8493 57.8861 45.2826 57.6248 45.6451C57.49 45.8326 56.7101 46.666 56.4529 46.9451Z" stroke="#30D2A3" stroke-width="5" stroke-linecap="round" stroke-linejoin="round"/>
</svg>
