<svg width="180" height="60" viewBox="0 0 180 60" fill="none" xmlns="http://www.w3.org/2000/svg">
<rect x="0.25" y="0.25" width="179.5" height="59.5" rx="4.75" fill="#00094A" stroke="white" stroke-width="0.5"/>
<path d="M55.8 17.4C56.5627 17.4 57.192 17.672 57.688 18.216C58.1893 18.7547 58.44 19.416 58.44 20.2C58.44 20.984 58.1893 21.648 57.688 22.192C57.192 22.7307 56.5627 23 55.8 23H53.64V17.4H55.8ZM55.8 22.472C56.4133 22.472 56.9147 22.2533 57.304 21.816C57.6987 21.3787 57.896 20.84 57.896 20.2C57.896 19.56 57.6987 19.0213 57.304 18.584C56.9147 18.1467 56.4133 17.928 55.8 17.928H54.2V22.472H55.8ZM62.6698 22.496C62.2645 22.896 61.7685 23.096 61.1818 23.096C60.5951 23.096 60.0965 22.896 59.6858 22.496C59.2805 22.0907 59.0778 21.592 59.0778 21C59.0778 20.408 59.2805 19.912 59.6858 19.512C60.0965 19.1067 60.5951 18.904 61.1818 18.904C61.7685 18.904 62.2645 19.1067 62.6698 19.512C63.0805 19.912 63.2858 20.408 63.2858 21C63.2858 21.592 63.0805 22.0907 62.6698 22.496ZM60.0618 22.128C60.3658 22.432 60.7391 22.584 61.1818 22.584C61.6245 22.584 61.9978 22.432 62.3018 22.128C62.6058 21.8187 62.7578 21.4427 62.7578 21C62.7578 20.5573 62.6058 20.184 62.3018 19.88C61.9978 19.5707 61.6245 19.416 61.1818 19.416C60.7391 19.416 60.3658 19.5707 60.0618 19.88C59.7578 20.184 59.6058 20.5573 59.6058 21C59.6058 21.4427 59.7578 21.8187 60.0618 22.128ZM68.8291 19H69.3731L68.1411 23H67.5651L66.5331 19.776L65.5011 23H64.9251L63.6931 19H64.2371L65.2211 22.32L66.2691 19H66.7971L67.8451 22.32L68.8291 19ZM72.0414 18.904C72.5267 18.904 72.908 19.0533 73.1854 19.352C73.468 19.6453 73.6094 20.0427 73.6094 20.544V23H73.0814V20.544C73.0814 20.1867 72.9854 19.9093 72.7934 19.712C72.6067 19.5147 72.34 19.416 71.9934 19.416C71.6094 19.416 71.2974 19.5387 71.0574 19.784C70.8174 20.024 70.6974 20.3973 70.6974 20.904V23H70.1694V19H70.6974V19.624C70.996 19.144 71.444 18.904 72.0414 18.904ZM74.6303 23V17.16H75.1583V23H74.6303ZM79.6308 22.496C79.2254 22.896 78.7294 23.096 78.1428 23.096C77.5561 23.096 77.0574 22.896 76.6468 22.496C76.2414 22.0907 76.0388 21.592 76.0388 21C76.0388 20.408 76.2414 19.912 76.6468 19.512C77.0574 19.1067 77.5561 18.904 78.1428 18.904C78.7294 18.904 79.2254 19.1067 79.6308 19.512C80.0414 19.912 80.2468 20.408 80.2468 21C80.2468 21.592 80.0414 22.0907 79.6308 22.496ZM77.0228 22.128C77.3268 22.432 77.7001 22.584 78.1428 22.584C78.5854 22.584 78.9588 22.432 79.2628 22.128C79.5668 21.8187 79.7188 21.4427 79.7188 21C79.7188 20.5573 79.5668 20.184 79.2628 19.88C78.9588 19.5707 78.5854 19.416 78.1428 19.416C77.7001 19.416 77.3268 19.5707 77.0228 19.88C76.7188 20.184 76.5668 20.5573 76.5668 21C76.5668 21.4427 76.7188 21.8187 77.0228 22.128ZM84.5703 19H85.0983V23H84.5703V22.216C84.2023 22.8027 83.6636 23.096 82.9543 23.096C82.3836 23.096 81.8956 22.8933 81.4903 22.488C81.0903 22.0827 80.8903 21.5867 80.8903 21C80.8903 20.4133 81.0903 19.9173 81.4903 19.512C81.8956 19.1067 82.3836 18.904 82.9543 18.904C83.6636 18.904 84.2023 19.1973 84.5703 19.784V19ZM81.8743 22.128C82.1783 22.432 82.5516 22.584 82.9943 22.584C83.437 22.584 83.8103 22.432 84.1143 22.128C84.4183 21.8187 84.5703 21.4427 84.5703 21C84.5703 20.5573 84.4183 20.184 84.1143 19.88C83.8103 19.5707 83.437 19.416 82.9943 19.416C82.5516 19.416 82.1783 19.5707 81.8743 19.88C81.5703 20.184 81.4183 20.5573 81.4183 21C81.4183 21.4427 81.5703 21.8187 81.8743 22.128ZM89.6562 17.4H90.1843V23H89.6562V22.216C89.2883 22.8027 88.7496 23.096 88.0403 23.096C87.4696 23.096 86.9816 22.8933 86.5763 22.488C86.1763 22.0827 85.9763 21.5867 85.9763 21C85.9763 20.4133 86.1763 19.9173 86.5763 19.512C86.9816 19.1067 87.4696 18.904 88.0403 18.904C88.7496 18.904 89.2883 19.1973 89.6562 19.784V17.4ZM86.9603 22.128C87.2643 22.432 87.6376 22.584 88.0803 22.584C88.5229 22.584 88.8963 22.432 89.2003 22.128C89.5043 21.8187 89.6562 21.4427 89.6562 21C89.6562 20.5573 89.5043 20.184 89.2003 19.88C88.8963 19.5707 88.5229 19.416 88.0803 19.416C87.6376 19.416 87.2643 19.5707 86.9603 19.88C86.6563 20.184 86.5043 20.5573 86.5043 21C86.5043 21.4427 86.6563 21.8187 86.9603 22.128ZM96.6542 22.496C96.2489 22.896 95.7529 23.096 95.1662 23.096C94.5795 23.096 94.0809 22.896 93.6702 22.496C93.2649 22.0907 93.0622 21.592 93.0622 21C93.0622 20.408 93.2649 19.912 93.6702 19.512C94.0809 19.1067 94.5795 18.904 95.1662 18.904C95.7529 18.904 96.2489 19.1067 96.6542 19.512C97.0649 19.912 97.2702 20.408 97.2702 21C97.2702 21.592 97.0649 22.0907 96.6542 22.496ZM94.0462 22.128C94.3502 22.432 94.7235 22.584 95.1662 22.584C95.6089 22.584 95.9822 22.432 96.2862 22.128C96.5902 21.8187 96.7422 21.4427 96.7422 21C96.7422 20.5573 96.5902 20.184 96.2862 19.88C95.9822 19.5707 95.6089 19.416 95.1662 19.416C94.7235 19.416 94.3502 19.5707 94.0462 19.88C93.7422 20.184 93.5902 20.5573 93.5902 21C93.5902 21.4427 93.7422 21.8187 94.0462 22.128ZM100.026 18.904C100.511 18.904 100.892 19.0533 101.17 19.352C101.452 19.6453 101.594 20.0427 101.594 20.544V23H101.066V20.544C101.066 20.1867 100.97 19.9093 100.778 19.712C100.591 19.5147 100.324 19.416 99.9778 19.416C99.5938 19.416 99.2818 19.5387 99.0418 19.784C98.8018 20.024 98.6818 20.3973 98.6818 20.904V23H98.1538V19H98.6818V19.624C98.9804 19.144 99.4284 18.904 100.026 18.904ZM106.735 19.512H105.583V21.936C105.583 22.1547 105.625 22.312 105.711 22.408C105.796 22.4987 105.924 22.5467 106.095 22.552C106.265 22.552 106.479 22.5467 106.735 22.536V23C106.175 23.0853 105.753 23.0453 105.471 22.88C105.193 22.7147 105.055 22.4 105.055 21.936V19.512H104.215V19H105.055V18.04L105.583 17.88V19H106.735V19.512ZM109.487 18.904C109.972 18.904 110.353 19.0533 110.631 19.352C110.913 19.6453 111.055 20.0427 111.055 20.544V23H110.527V20.544C110.527 20.1867 110.431 19.9093 110.239 19.712C110.052 19.5147 109.785 19.416 109.439 19.416C109.055 19.416 108.743 19.5387 108.503 19.784C108.263 20.024 108.143 20.3973 108.143 20.904V23H107.615V17.4H108.143V19.624C108.441 19.144 108.889 18.904 109.487 18.904ZM113.924 18.904C114.516 18.904 114.993 19.1147 115.356 19.536C115.724 19.952 115.908 20.4453 115.908 21.016C115.908 21.0747 115.902 21.1573 115.892 21.264H112.38C112.433 21.6693 112.604 21.992 112.892 22.232C113.185 22.4667 113.545 22.584 113.972 22.584C114.276 22.584 114.537 22.5227 114.756 22.4C114.98 22.272 115.148 22.1067 115.26 21.904L115.724 22.176C115.548 22.4587 115.308 22.6827 115.004 22.848C114.7 23.0133 114.353 23.096 113.964 23.096C113.334 23.096 112.822 22.8987 112.428 22.504C112.033 22.1093 111.836 21.608 111.836 21C111.836 20.4027 112.03 19.904 112.42 19.504C112.809 19.104 113.31 18.904 113.924 18.904ZM113.924 19.416C113.508 19.416 113.158 19.5413 112.876 19.792C112.598 20.0373 112.433 20.3573 112.38 20.752H115.364C115.31 20.3307 115.148 20.0027 114.876 19.768C114.604 19.5333 114.286 19.416 113.924 19.416Z" fill="white"/>
<path d="M60.468 40L59.586 37.462H54.222L53.34 40H51.09L55.662 27.4H58.146L62.7 40H60.468ZM54.906 35.518H58.902L56.904 29.83L54.906 35.518ZM69.0229 30.766C70.2589 30.766 71.3149 31.228 72.1909 32.152C73.0669 33.064 73.5049 34.18 73.5049 35.5C73.5049 36.832 73.0669 37.954 72.1909 38.866C71.3149 39.778 70.2589 40.234 69.0229 40.234C67.6549 40.234 66.6049 39.73 65.8729 38.722V43.6H63.9289V31H65.8729V32.296C66.6049 31.276 67.6549 30.766 69.0229 30.766ZM66.6829 37.57C67.2229 38.11 67.9009 38.38 68.7169 38.38C69.5329 38.38 70.2109 38.11 70.7509 37.57C71.2909 37.018 71.5609 36.328 71.5609 35.5C71.5609 34.672 71.2909 33.988 70.7509 33.448C70.2109 32.896 69.5329 32.62 68.7169 32.62C67.9009 32.62 67.2229 32.896 66.6829 33.448C66.1429 33.988 65.8729 34.672 65.8729 35.5C65.8729 36.328 66.1429 37.018 66.6829 37.57ZM80.3608 30.766C81.5968 30.766 82.6528 31.228 83.5288 32.152C84.4048 33.064 84.8428 34.18 84.8428 35.5C84.8428 36.832 84.4048 37.954 83.5288 38.866C82.6528 39.778 81.5968 40.234 80.3608 40.234C78.9928 40.234 77.9428 39.73 77.2108 38.722V43.6H75.2668V31H77.2108V32.296C77.9428 31.276 78.9928 30.766 80.3608 30.766ZM78.0208 37.57C78.5608 38.11 79.2388 38.38 80.0548 38.38C80.8708 38.38 81.5488 38.11 82.0888 37.57C82.6288 37.018 82.8988 36.328 82.8988 35.5C82.8988 34.672 82.6288 33.988 82.0888 33.448C81.5488 32.896 80.8708 32.62 80.0548 32.62C79.2388 32.62 78.5608 32.896 78.0208 33.448C77.4808 33.988 77.2108 34.672 77.2108 35.5C77.2108 36.328 77.4808 37.018 78.0208 37.57ZM95.4247 40.234C94.2127 40.234 93.1807 39.958 92.3287 39.406C91.4887 38.854 90.9007 38.098 90.5647 37.138L92.3467 36.094C92.8507 37.51 93.8947 38.218 95.4787 38.218C96.2587 38.218 96.8407 38.068 97.2247 37.768C97.6207 37.456 97.8187 37.054 97.8187 36.562C97.8187 36.046 97.6087 35.656 97.1887 35.392C96.7687 35.116 96.0247 34.816 94.9567 34.492C94.3567 34.312 93.8707 34.144 93.4987 33.988C93.1267 33.832 92.7307 33.616 92.3107 33.34C91.9027 33.052 91.5967 32.698 91.3927 32.278C91.1887 31.858 91.0867 31.366 91.0867 30.802C91.0867 29.686 91.4827 28.804 92.2747 28.156C93.0667 27.496 94.0207 27.166 95.1367 27.166C96.1447 27.166 97.0267 27.412 97.7827 27.904C98.5387 28.396 99.1207 29.074 99.5287 29.938L97.7827 30.946C97.2547 29.77 96.3727 29.182 95.1367 29.182C94.5367 29.182 94.0567 29.326 93.6967 29.614C93.3367 29.89 93.1567 30.268 93.1567 30.748C93.1567 31.216 93.3367 31.588 93.6967 31.864C94.0687 32.128 94.7347 32.41 95.6947 32.71C96.1747 32.866 96.5227 32.986 96.7387 33.07C96.9667 33.142 97.2787 33.262 97.6747 33.43C98.0827 33.598 98.3887 33.766 98.5927 33.934C98.7967 34.102 99.0127 34.312 99.2407 34.564C99.4807 34.816 99.6487 35.104 99.7447 35.428C99.8407 35.752 99.8887 36.118 99.8887 36.526C99.8887 37.666 99.4747 38.572 98.6467 39.244C97.8307 39.904 96.7567 40.234 95.4247 40.234ZM106.304 32.872H104.072V37.192C104.072 37.564 104.156 37.834 104.324 38.002C104.492 38.158 104.738 38.248 105.062 38.272C105.398 38.284 105.812 38.278 106.304 38.254V40C104.816 40.18 103.748 40.054 103.1 39.622C102.452 39.178 102.128 38.368 102.128 37.192V32.872H100.472V31H102.128V29.056L104.072 28.48V31H106.304V32.872ZM111.946 40.234C110.626 40.234 109.504 39.778 108.58 38.866C107.656 37.954 107.194 36.832 107.194 35.5C107.194 34.168 107.656 33.046 108.58 32.134C109.504 31.222 110.626 30.766 111.946 30.766C113.278 30.766 114.4 31.222 115.312 32.134C116.236 33.046 116.698 34.168 116.698 35.5C116.698 36.832 116.236 37.954 115.312 38.866C114.4 39.778 113.278 40.234 111.946 40.234ZM109.948 37.534C110.488 38.074 111.154 38.344 111.946 38.344C112.738 38.344 113.404 38.074 113.944 37.534C114.484 36.994 114.754 36.316 114.754 35.5C114.754 34.684 114.484 34.006 113.944 33.466C113.404 32.926 112.738 32.656 111.946 32.656C111.154 32.656 110.488 32.926 109.948 33.466C109.408 34.006 109.138 34.684 109.138 35.5C109.138 36.316 109.408 36.994 109.948 37.534ZM120.4 32.512C120.892 31.396 121.816 30.838 123.172 30.838V32.944C122.428 32.896 121.78 33.076 121.228 33.484C120.676 33.88 120.4 34.54 120.4 35.464V40H118.456V31H120.4V32.512ZM125.717 36.328C125.861 37.012 126.191 37.54 126.707 37.912C127.223 38.272 127.853 38.452 128.597 38.452C129.629 38.452 130.403 38.08 130.919 37.336L132.521 38.272C131.633 39.58 130.319 40.234 128.579 40.234C127.115 40.234 125.933 39.79 125.033 38.902C124.133 38.002 123.683 36.868 123.683 35.5C123.683 34.156 124.127 33.034 125.015 32.134C125.903 31.222 127.043 30.766 128.435 30.766C129.755 30.766 130.835 31.228 131.675 32.152C132.527 33.076 132.953 34.198 132.953 35.518C132.953 35.722 132.929 35.992 132.881 36.328H125.717ZM125.699 34.744H130.991C130.859 34.012 130.553 33.46 130.073 33.088C129.605 32.716 129.053 32.53 128.417 32.53C127.697 32.53 127.097 32.728 126.617 33.124C126.137 33.52 125.831 34.06 125.699 34.744Z" fill="white"/>
<path d="M37.5594 30.2116C37.5474 28.1624 38.4758 26.618 40.3508 25.4792C39.3021 23.9769 37.7157 23.1506 35.6244 22.9914C33.6443 22.8351 31.4779 24.1452 30.6847 24.1452C29.8464 24.1452 27.9294 23.0454 26.421 23.0454C23.3082 23.0935 20 25.5273 20 30.479C20 31.9423 20.2674 33.4537 20.8023 35.0101C21.5174 37.0593 24.0954 42.0802 26.7846 41.999C28.1908 41.966 29.1853 41.0015 31.0152 41.0015C32.791 41.0015 33.7104 41.999 35.2789 41.999C37.9921 41.96 40.3237 37.3958 41.0028 35.3406C37.3641 33.625 37.5594 30.3168 37.5594 30.2116ZM34.4015 21.0473C35.9249 19.2385 35.7866 17.5919 35.7416 17C34.3955 17.0781 32.839 17.9164 31.9527 18.947C30.9761 20.0528 30.4022 21.4199 30.5254 22.9613C31.9797 23.0725 33.3078 22.3243 34.4015 21.0473Z" fill="white"/>
</svg>
