<svg width="14" height="14" viewBox="0 0 14 14" fill="#B3B5C9" xmlns="http://www.w3.org/2000/svg">
<path fill-rule="evenodd" clip-rule="evenodd" d="M4.08333 9.33341C4.08333 9.01258 4.34583 8.75008 4.66667 8.75008C4.9875 8.75008 5.25 9.01258 5.25 9.33341C5.25 9.65425 4.9875 9.91675 4.66667 9.91675C4.34583 9.91675 4.08333 9.65425 4.08333 9.33341ZM7 8.75008H9.33333C9.65417 8.75008 9.91667 9.01258 9.91667 9.33341C9.91667 9.65425 9.65417 9.91675 9.33333 9.91675H7C6.67917 9.91675 6.41667 9.65425 6.41667 9.33341C6.41667 9.01258 6.67917 8.75008 7 8.75008ZM10.5 11.6667H3.5C3.17858 11.6667 2.91667 11.4048 2.91667 11.0834V7.58341H11.0833V11.0834C11.0833 11.4048 10.8214 11.6667 10.5 11.6667ZM3.5 3.50008H4.08333V4.08341C4.08333 4.40425 4.34583 4.66675 4.66667 4.66675C4.9875 4.66675 5.25 4.40425 5.25 4.08341V3.50008H8.75V4.08341C8.75 4.40425 9.0125 4.66675 9.33333 4.66675C9.65417 4.66675 9.91667 4.40425 9.91667 4.08341V3.50008H10.5C10.8214 3.50008 11.0833 3.762 11.0833 4.08341V6.41675H2.91667V4.08341C2.91667 3.762 3.17858 3.50008 3.5 3.50008ZM10.5 2.33341H9.91667V1.75008C9.91667 1.42925 9.65417 1.16675 9.33333 1.16675C9.0125 1.16675 8.75 1.42925 8.75 1.75008V2.33341H5.25V1.75008C5.25 1.42925 4.9875 1.16675 4.66667 1.16675C4.34583 1.16675 4.08333 1.42925 4.08333 1.75008V2.33341H3.5C2.53517 2.33341 1.75 3.11858 1.75 4.08342V11.0834C1.75 12.0482 2.53517 12.8334 3.5 12.8334H10.5C11.4648 12.8334 12.25 12.0482 12.25 11.0834V4.08342C12.25 3.11858 11.4648 2.33341 10.5 2.33341Z" fill="#B3B5C9"/>
<mask id="mask0" mask-type="alpha" maskUnits="userSpaceOnUse" x="1" y="1" width="12" height="12">
<path fill-rule="evenodd" clip-rule="evenodd" d="M4.08333 9.33341C4.08333 9.01258 4.34583 8.75008 4.66667 8.75008C4.9875 8.75008 5.25 9.01258 5.25 9.33341C5.25 9.65425 4.9875 9.91675 4.66667 9.91675C4.34583 9.91675 4.08333 9.65425 4.08333 9.33341ZM7 8.75008H9.33333C9.65417 8.75008 9.91667 9.01258 9.91667 9.33341C9.91667 9.65425 9.65417 9.91675 9.33333 9.91675H7C6.67917 9.91675 6.41667 9.65425 6.41667 9.33341C6.41667 9.01258 6.67917 8.75008 7 8.75008ZM10.5 11.6667H3.5C3.17858 11.6667 2.91667 11.4048 2.91667 11.0834V7.58341H11.0833V11.0834C11.0833 11.4048 10.8214 11.6667 10.5 11.6667ZM3.5 3.50008H4.08333V4.08341C4.08333 4.40425 4.34583 4.66675 4.66667 4.66675C4.9875 4.66675 5.25 4.40425 5.25 4.08341V3.50008H8.75V4.08341C8.75 4.40425 9.0125 4.66675 9.33333 4.66675C9.65417 4.66675 9.91667 4.40425 9.91667 4.08341V3.50008H10.5C10.8214 3.50008 11.0833 3.762 11.0833 4.08341V6.41675H2.91667V4.08341C2.91667 3.762 3.17858 3.50008 3.5 3.50008ZM10.5 2.33341H9.91667V1.75008C9.91667 1.42925 9.65417 1.16675 9.33333 1.16675C9.0125 1.16675 8.75 1.42925 8.75 1.75008V2.33341H5.25V1.75008C5.25 1.42925 4.9875 1.16675 4.66667 1.16675C4.34583 1.16675 4.08333 1.42925 4.08333 1.75008V2.33341H3.5C2.53517 2.33341 1.75 3.11858 1.75 4.08342V11.0834C1.75 12.0482 2.53517 12.8334 3.5 12.8334H10.5C11.4648 12.8334 12.25 12.0482 12.25 11.0834V4.08342C12.25 3.11858 11.4648 2.33341 10.5 2.33341Z" fill="#B3B5C9"/>
</mask>
<g mask="url(#mask0)">
<rect width="14" height="14" fill="#B3B5C9"/>
</g>
</svg>
