<svg width="180" height="60" viewBox="0 0 180 60" fill="none" xmlns="http://www.w3.org/2000/svg">
<rect x="0.25" y="0.25" width="179.5" height="59.5" rx="4.75" fill="#00094A" stroke="white" stroke-width="0.5"/>
<path d="M33.8291 33.1544C36.0347 31.9434 37.7067 31.0205 37.8508 30.9488C38.3118 30.7036 38.7879 30.0547 37.8508 29.5507C37.5482 29.3922 35.9192 28.4981 33.8291 27.3451L30.9316 30.2713L33.8291 33.1543V33.1544Z" fill="#FFD900"/>
<path d="M30.9319 30.2709L21.7061 39.5691C21.9226 39.5978 22.1671 39.5404 22.4553 39.3819C23.0605 39.0507 29.4756 35.5473 33.8293 33.1547L30.9319 30.2709Z" fill="#F43249"/>
<path d="M30.9325 30.2711L33.83 27.3593C33.83 27.3593 23.1049 21.5062 22.456 21.1607C22.2115 21.0159 21.9375 20.9729 21.6924 21.0159L30.9325 30.2711Z" fill="#00EE76"/>
<path d="M30.9321 30.2746L21.6919 21.0194C21.3169 21.1061 21 21.4374 21 22.115V38.4773C21 39.0974 21.2452 39.5441 21.7063 39.5872L30.9321 30.2746Z" fill="#00D3FF"/>
<path d="M56.992 20.336V20.624C56.992 21.3173 56.744 21.904 56.248 22.384C55.752 22.8587 55.088 23.096 54.256 23.096C53.408 23.096 52.7067 22.816 52.152 22.256C51.5973 21.696 51.32 21.0107 51.32 20.2C51.32 19.3893 51.5973 18.704 52.152 18.144C52.7067 17.584 53.408 17.304 54.256 17.304C54.7733 17.304 55.248 17.4293 55.68 17.68C56.112 17.9307 56.4453 18.264 56.68 18.68L56.184 18.968C56.008 18.6267 55.7467 18.3547 55.4 18.152C55.0533 17.9493 54.672 17.848 54.256 17.848C53.5573 17.848 52.9867 18.0747 52.544 18.528C52.1013 18.9813 51.88 19.5387 51.88 20.2C51.88 20.8613 52.1013 21.4187 52.544 21.872C52.9867 22.3253 53.5573 22.552 54.256 22.552C54.8853 22.552 55.3893 22.3947 55.768 22.08C56.1467 21.76 56.3627 21.3547 56.416 20.864H54.192V20.336H56.992ZM59.7205 18.904C60.3125 18.904 60.7898 19.1147 61.1525 19.536C61.5205 19.952 61.7045 20.4453 61.7045 21.016C61.7045 21.0747 61.6992 21.1573 61.6885 21.264H58.1765C58.2298 21.6693 58.4005 21.992 58.6885 22.232C58.9818 22.4667 59.3418 22.584 59.7685 22.584C60.0725 22.584 60.3338 22.5227 60.5525 22.4C60.7765 22.272 60.9445 22.1067 61.0565 21.904L61.5205 22.176C61.3445 22.4587 61.1045 22.6827 60.8005 22.848C60.4965 23.0133 60.1498 23.096 59.7605 23.096C59.1312 23.096 58.6192 22.8987 58.2245 22.504C57.8298 22.1093 57.6325 21.608 57.6325 21C57.6325 20.4027 57.8272 19.904 58.2165 19.504C58.6058 19.104 59.1072 18.904 59.7205 18.904ZM59.7205 19.416C59.3045 19.416 58.9552 19.5413 58.6725 19.792C58.3952 20.0373 58.2298 20.3573 58.1765 20.752H61.1605C61.1072 20.3307 60.9445 20.0027 60.6725 19.768C60.4005 19.5333 60.0832 19.416 59.7205 19.416ZM64.5472 19.512H63.3952V21.936C63.3952 22.1547 63.4379 22.312 63.5232 22.408C63.6085 22.4987 63.7365 22.5467 63.9072 22.552C64.0779 22.552 64.2912 22.5467 64.5472 22.536V23C63.9872 23.0853 63.5659 23.0453 63.2832 22.88C63.0059 22.7147 62.8672 22.4 62.8672 21.936V19.512H62.0272V19H62.8672V18.04L63.3952 17.88V19H64.5472V19.512ZM67.9632 18.04C67.8885 18.1147 67.7979 18.152 67.6912 18.152C67.5845 18.152 67.4939 18.1147 67.4192 18.04C67.3445 17.9653 67.3072 17.8747 67.3072 17.768C67.3072 17.6613 67.3445 17.5707 67.4192 17.496C67.4939 17.4213 67.5845 17.384 67.6912 17.384C67.7979 17.384 67.8885 17.4213 67.9632 17.496C68.0379 17.5707 68.0752 17.6613 68.0752 17.768C68.0752 17.8747 68.0379 17.9653 67.9632 18.04ZM67.4272 23V19H67.9552V23H67.4272ZM71.1956 19.512H70.0436V21.936C70.0436 22.1547 70.0863 22.312 70.1716 22.408C70.257 22.4987 70.385 22.5467 70.5556 22.552C70.7263 22.552 70.9396 22.5467 71.1956 22.536V23C70.6356 23.0853 70.2143 23.0453 69.9316 22.88C69.6543 22.7147 69.5156 22.4 69.5156 21.936V19.512H68.6756V19H69.5156V18.04L70.0436 17.88V19H71.1956V19.512ZM77.4276 22.496C77.0223 22.896 76.5263 23.096 75.9396 23.096C75.353 23.096 74.8543 22.896 74.4436 22.496C74.0383 22.0907 73.8356 21.592 73.8356 21C73.8356 20.408 74.0383 19.912 74.4436 19.512C74.8543 19.1067 75.353 18.904 75.9396 18.904C76.5263 18.904 77.0223 19.1067 77.4276 19.512C77.8383 19.912 78.0436 20.408 78.0436 21C78.0436 21.592 77.8383 22.0907 77.4276 22.496ZM74.8196 22.128C75.1236 22.432 75.497 22.584 75.9396 22.584C76.3823 22.584 76.7556 22.432 77.0596 22.128C77.3636 21.8187 77.5156 21.4427 77.5156 21C77.5156 20.5573 77.3636 20.184 77.0596 19.88C76.7556 19.5707 76.3823 19.416 75.9396 19.416C75.497 19.416 75.1236 19.5707 74.8196 19.88C74.5156 20.184 74.3636 20.5573 74.3636 21C74.3636 21.4427 74.5156 21.8187 74.8196 22.128ZM80.7992 18.904C81.2845 18.904 81.6659 19.0533 81.9432 19.352C82.2259 19.6453 82.3672 20.0427 82.3672 20.544V23H81.8392V20.544C81.8392 20.1867 81.7432 19.9093 81.5512 19.712C81.3645 19.5147 81.0979 19.416 80.7512 19.416C80.3672 19.416 80.0552 19.5387 79.8152 19.784C79.5752 20.024 79.4552 20.3973 79.4552 20.904V23H78.9272V19H79.4552V19.624C79.7539 19.144 80.2019 18.904 80.7992 18.904Z" fill="white"/>
<path d="M62.518 33.484V34.348C62.518 36.076 61.948 37.492 60.808 38.596C59.668 39.688 58.18 40.234 56.344 40.234C54.4 40.234 52.792 39.604 51.52 38.344C50.26 37.084 49.63 35.536 49.63 33.7C49.63 31.876 50.26 30.334 51.52 29.074C52.792 27.802 54.364 27.166 56.236 27.166C57.412 27.166 58.486 27.436 59.458 27.976C60.43 28.516 61.186 29.242 61.726 30.154L59.944 31.18C59.608 30.58 59.11 30.1 58.45 29.74C57.79 29.368 57.052 29.182 56.236 29.182C54.916 29.182 53.83 29.614 52.978 30.478C52.126 31.342 51.7 32.422 51.7 33.718C51.7 35.014 52.126 36.088 52.978 36.94C53.842 37.792 54.97 38.218 56.362 38.218C57.478 38.218 58.384 37.96 59.08 37.444C59.788 36.916 60.238 36.214 60.43 35.338H56.218V33.484H62.518ZM68.5324 40.234C67.2124 40.234 66.0904 39.778 65.1664 38.866C64.2424 37.954 63.7804 36.832 63.7804 35.5C63.7804 34.168 64.2424 33.046 65.1664 32.134C66.0904 31.222 67.2124 30.766 68.5324 30.766C69.8644 30.766 70.9864 31.222 71.8984 32.134C72.8224 33.046 73.2844 34.168 73.2844 35.5C73.2844 36.832 72.8224 37.954 71.8984 38.866C70.9864 39.778 69.8644 40.234 68.5324 40.234ZM66.5344 37.534C67.0744 38.074 67.7404 38.344 68.5324 38.344C69.3244 38.344 69.9904 38.074 70.5304 37.534C71.0704 36.994 71.3404 36.316 71.3404 35.5C71.3404 34.684 71.0704 34.006 70.5304 33.466C69.9904 32.926 69.3244 32.656 68.5324 32.656C67.7404 32.656 67.0744 32.926 66.5344 33.466C65.9944 34.006 65.7244 34.684 65.7244 35.5C65.7244 36.316 65.9944 36.994 66.5344 37.534ZM79.2902 40.234C77.9702 40.234 76.8482 39.778 75.9242 38.866C75.0002 37.954 74.5382 36.832 74.5382 35.5C74.5382 34.168 75.0002 33.046 75.9242 32.134C76.8482 31.222 77.9702 30.766 79.2902 30.766C80.6222 30.766 81.7442 31.222 82.6562 32.134C83.5802 33.046 84.0422 34.168 84.0422 35.5C84.0422 36.832 83.5802 37.954 82.6562 38.866C81.7442 39.778 80.6222 40.234 79.2902 40.234ZM77.2922 37.534C77.8322 38.074 78.4982 38.344 79.2902 38.344C80.0822 38.344 80.7482 38.074 81.2882 37.534C81.8282 36.994 82.0982 36.316 82.0982 35.5C82.0982 34.684 81.8282 34.006 81.2882 33.466C80.7482 32.926 80.0822 32.656 79.2902 32.656C78.4982 32.656 77.8322 32.926 77.2922 33.466C76.7522 34.006 76.4822 34.684 76.4822 35.5C76.4822 36.316 76.7522 36.994 77.2922 37.534ZM92.964 31H94.872V39.586C94.872 40.954 94.422 42.004 93.522 42.736C92.622 43.468 91.53 43.834 90.246 43.834C88.17 43.834 86.748 43.108 85.98 41.656L87.654 40.684C88.122 41.608 88.998 42.07 90.282 42.07C91.122 42.07 91.776 41.848 92.244 41.404C92.724 40.972 92.964 40.366 92.964 39.586V38.488C92.232 39.532 91.188 40.054 89.832 40.054C88.56 40.054 87.486 39.604 86.61 38.704C85.734 37.792 85.296 36.694 85.296 35.41C85.296 34.126 85.734 33.034 86.61 32.134C87.486 31.222 88.56 30.766 89.832 30.766C91.188 30.766 92.232 31.288 92.964 32.332V31ZM88.05 37.426C88.602 37.966 89.286 38.236 90.102 38.236C90.918 38.236 91.596 37.966 92.136 37.426C92.688 36.886 92.964 36.214 92.964 35.41C92.964 34.606 92.688 33.934 92.136 33.394C91.596 32.854 90.918 32.584 90.102 32.584C89.286 32.584 88.602 32.854 88.05 33.394C87.51 33.934 87.24 34.606 87.24 35.41C87.24 36.214 87.51 36.886 88.05 37.426ZM97.1379 40V26.86H99.0819V40H97.1379ZM102.869 36.328C103.013 37.012 103.343 37.54 103.859 37.912C104.375 38.272 105.005 38.452 105.749 38.452C106.781 38.452 107.555 38.08 108.071 37.336L109.673 38.272C108.785 39.58 107.471 40.234 105.731 40.234C104.267 40.234 103.085 39.79 102.185 38.902C101.285 38.002 100.835 36.868 100.835 35.5C100.835 34.156 101.279 33.034 102.167 32.134C103.055 31.222 104.195 30.766 105.587 30.766C106.907 30.766 107.987 31.228 108.827 32.152C109.679 33.076 110.105 34.198 110.105 35.518C110.105 35.722 110.081 35.992 110.033 36.328H102.869ZM102.851 34.744H108.143C108.011 34.012 107.705 33.46 107.225 33.088C106.757 32.716 106.205 32.53 105.569 32.53C104.849 32.53 104.249 32.728 103.769 33.124C103.289 33.52 102.983 34.06 102.851 34.744ZM121.086 27.4C122.274 27.4 123.264 27.796 124.056 28.588C124.86 29.38 125.262 30.364 125.262 31.54C125.262 32.704 124.86 33.688 124.056 34.492C123.264 35.284 122.274 35.68 121.086 35.68H118.512V40H116.442V27.4H121.086ZM121.086 33.736C121.698 33.736 122.202 33.532 122.598 33.124C122.994 32.704 123.192 32.176 123.192 31.54C123.192 30.904 122.994 30.382 122.598 29.974C122.202 29.554 121.698 29.344 121.086 29.344H118.512V33.736H121.086ZM126.933 40V26.86H128.877V40H126.933ZM138.262 31H140.206V40H138.262V38.704C137.53 39.724 136.48 40.234 135.112 40.234C133.876 40.234 132.82 39.778 131.944 38.866C131.068 37.942 130.63 36.82 130.63 35.5C130.63 34.168 131.068 33.046 131.944 32.134C132.82 31.222 133.876 30.766 135.112 30.766C136.48 30.766 137.53 31.27 138.262 32.278V31ZM133.384 37.57C133.924 38.11 134.602 38.38 135.418 38.38C136.234 38.38 136.912 38.11 137.452 37.57C137.992 37.018 138.262 36.328 138.262 35.5C138.262 34.672 137.992 33.988 137.452 33.448C136.912 32.896 136.234 32.62 135.418 32.62C134.602 32.62 133.924 32.896 133.384 33.448C132.844 33.988 132.574 34.672 132.574 35.5C132.574 36.328 132.844 37.018 133.384 37.57ZM148.538 31H150.608L147.152 40.288C146.288 42.616 144.824 43.72 142.76 43.6V41.782C143.372 41.818 143.864 41.686 144.236 41.386C144.608 41.098 144.914 40.642 145.154 40.018L145.244 39.838L141.428 31H143.552L146.234 37.534L148.538 31Z" fill="white"/>
</svg>
